<?xml version="1.0" encoding="UTF-8" standalone="no"?>
<!-- Created with Inkscape (http://www.inkscape.org/) -->

<svg
   width="1080"
   height="1080"
   viewBox="0 0 1080 1080"
   version="1.1"
   id="svg1"
   xml:space="preserve"
   inkscape:version="1.4 (86a8ad7, 2024-10-11)"
   sodipodi:docname="LOGO GRUPO RECONSTRUIR.svg"
   xmlns:inkscape="http://www.inkscape.org/namespaces/inkscape"
   xmlns:sodipodi="http://sodipodi.sourceforge.net/DTD/sodipodi-0.dtd"
   xmlns="http://www.w3.org/2000/svg"
   xmlns:svg="http://www.w3.org/2000/svg"><sodipodi:namedview
     id="namedview1"
     pagecolor="#505050"
     bordercolor="#eeeeee"
     borderopacity="1"
     inkscape:showpageshadow="0"
     inkscape:pageopacity="0"
     inkscape:pagecheckerboard="0"
     inkscape:deskcolor="#505050"
     inkscape:document-units="px"
     inkscape:zoom="0.55455504"
     inkscape:cx="595.9733"
     inkscape:cy="529.25315"
     inkscape:window-width="1920"
     inkscape:window-height="1027"
     inkscape:window-x="-8"
     inkscape:window-y="-8"
     inkscape:window-maximized="1"
     inkscape:current-layer="layer1" /><defs
     id="defs1" /><g
     inkscape:label="Camada 1"
     inkscape:groupmode="layer"
     id="layer1"><path
       style="fill:#00302c;fill-opacity:1;stroke-width:2.27804"
       d="m 320.41711,965.09317 c -10.1508,-58.85375 -16.91127,-83.16122 -27.69638,-99.58282 l -4.48844,-6.83412 -35.99663,-0.005 c -58.5195,-0.008 -96.23898,-1.26413 -104.26,-3.47043 -13.40721,-3.6879 -24.81073,-10.50957 -35.28209,-21.10608 -12.0201,-12.1637 -15.954309,-19.70368 -16.662168,-31.93327 -0.638711,-11.03547 0.901486,-18.19186 9.129118,-42.4169 9.77904,-28.79292 8.93317,-34.49752 -8.106578,-54.67151 -4.969746,-5.88456 -9.035892,-11.84513 -9.035892,-13.24637 0,-3.74441 2.247732,-7.40765 9.310215,-15.17343 8.380955,-9.2155 8.219025,-11.3381 -1.436877,-18.8366 -15.138659,-11.75621 -16.210562,-18.28215 -5.586085,-34.00868 3.763839,-5.57128 7.149711,-11.67953 7.524192,-13.57387 0.374491,-1.89434 1.834787,-7.29339 3.245135,-11.99789 5.46325,-18.2238 2.0265,-23.0473 -19.041266,-26.7246 -8.874951,-1.54909 -14.076324,-3.39566 -22.502444,-7.98876 -24.225664,-13.20542 -28.19369,-22.50413 -18.6165,-43.62617 7.369293,-16.25261 20.380543,-34.4059 59.4778,-82.98342 24.14566,-30.00047 35.90713,-45.25521 43.55543,-56.49184 l 4.33922,-6.375 -3.03689,-9.24583 c -4.42595,-13.47501 -4.8959,-30.23042 -1.36547,-48.68339 20.52063,-107.25811 100.4565,-189.54899 214.71245,-221.038243 33.57343,-9.252916 38.2106,-9.64576 112.58627,-9.537959 36.62162,0.05308 69.22073,0.565521 72.44251,1.138789 4.62325,0.822643 5.03474,1.077232 1.95261,1.208043 -7.15213,0.303323 -41.44671,6.557976 -57.28356,10.447172 -88.97247,21.849748 -160.16263,68.668568 -203.07588,133.554578 -26.20265,39.6192 -41.51869,82.62866 -47.50269,133.39382 -1.94954,16.53892 -1.58174,59.47224 0.67508,78.79716 4.97377,42.59062 20.99545,100.11256 36.43659,130.81651 4.50295,8.95388 19.82659,32.6523 34.64716,53.58286 28.26907,39.92337 42.78763,70.40909 45.39996,95.32981 3.20341,30.55786 -6.46057,114.15456 -24.16823,209.06479 -5.69456,30.52191 -7.06809,36.44861 -8.44702,36.44861 -0.61216,0 -1.44132,-1.90378 -1.84265,-4.23064 z m 434.19403,-0.65088 c -2.28961,-8.61315 -12.78432,-66.43176 -17.54363,-96.6539 -9.42986,-59.88189 -13.79094,-101.49518 -13.7978,-131.65518 0,-17.9475 0.38866,-21.72198 3.31616,-31.89253 6.58234,-22.86844 18.40946,-44.38178 47.76492,-86.88468 22.55063,-32.65012 29.74163,-45.09466 37.30931,-64.56508 23.10368,-59.44269 34.0674,-123.11951 30.18124,-175.29343 C 838.24202,329.17415 829.48756,296.38811 809.5957,256.7344 796.85993,231.34622 781.91393,210.59941 760.4118,188.46093 712.23462,138.85842 650.8714,107.21437 570.96208,90.764904 l -17.57333,-3.617544 18.0907,-1.018489 c 26.79837,-1.508716 85.89005,-0.03968 102.31992,2.543768 75.76911,11.913831 134.79996,39.749461 182.05012,85.844551 38.72798,37.78133 63.07435,80.03473 75.55839,131.1324 6.86927,28.11567 7.27746,45.94697 1.44064,62.91191 -1.43397,4.16801 -2.60721,8.02136 -2.60721,8.56301 0,1.98514 22.27335,31.40827 50.18752,66.29788 32.57037,40.70949 39.11677,49.42427 49.24197,65.55184 15.5044,24.69548 16.4652,38.65923 3.3731,49.02823 -9.75,7.72233 -26.0505,15.27587 -36.31666,16.82908 -20.80649,3.14785 -25.32539,8.83042 -19.81776,24.92085 1.32488,3.87084 2.83863,9.35609 3.36394,12.18942 0.52511,2.83332 3.10223,8.2657 5.72674,12.07192 6.71588,9.73982 9.32357,14.85411 9.3261,18.29066 0,6.15187 -3.76315,11.84511 -12.25205,18.51635 -5.33325,4.19132 -8.57379,7.69807 -8.57379,9.27834 0,1.39724 2.53526,5.29777 5.63384,8.66789 12.42647,13.51551 12.83013,16.62854 3.49379,26.9381 -11.41929,12.60952 -16.06536,20.72611 -16.67315,29.12677 -0.46091,6.37338 0.48653,10.51135 6.63861,28.98888 8.83421,26.53422 10.743,37.78677 8.21378,48.4181 -3.36907,14.16075 -19.55175,32.45442 -35.28272,39.88482 -18.89405,8.9246 -14.22389,8.44159 -88.52965,9.15606 l -67.69025,0.65087 -5.34951,7.97988 c -7.05649,10.52567 -14.79021,34.34379 -20.54222,63.26501 -2.45915,12.36406 -4.87024,25.55547 -5.35803,29.31423 -1.04395,8.0442 -2.63796,8.7446 -4.44377,1.9526 z M 546.79144,759.09342 c 3.7876,-9.39413 3.7554,-12.0725 -0.24545,-20.47205 -7.53857,-15.82637 -9.31778,-31.29448 -4.47094,-38.86742 5.94059,-9.28173 9.38499,-17.96091 10.192,-25.68151 0.71234,-6.81557 0.508,-8.1206 -1.38522,-8.84709 -2.78603,-1.0691 -8.86403,4.62148 -18.22745,17.06563 -9.48488,12.60548 -9.79928,13.3653 -12.50503,30.2211 -2.82906,17.62392 -5.61623,27.13459 -9.26507,31.61472 -2.10492,2.5845 -2.44996,2.71724 -1.68298,0.6475 1.51771,-4.0954 2.15607,-34.92856 0.76552,-36.97759 -1.05178,-1.54989 -2.20983,-1.56817 -7.54843,-0.11936 -3.46828,0.94129 -9.20336,3.15118 -12.74447,4.91087 -6.90814,3.43289 -20.31931,15.38478 -24.4305,21.77215 l -2.5135,3.90522 0.85856,-4.55607 c 2.83273,-15.03267 14.53557,-27.88791 39.32921,-43.20208 10.36366,-6.40128 13.77972,-10.0563 24.71181,-26.44081 9.6783,-14.50523 11.33547,-17.57345 9.49156,-17.57345 -4.65419,0 -12.5353,5.60834 -24.63232,17.52869 -8.99748,8.86618 -15.91839,14.52082 -19.96072,16.30881 -3.75309,1.66005 -13.72199,3.74376 -25.33577,5.29566 -25.67975,3.43153 -33.60514,7.58305 -38.98493,20.42127 -2.53575,6.05127 -3.52032,5.22767 -2.63971,-2.20805 0.88236,-7.45012 3.2566,-12.53259 8.80794,-18.85522 l 3.95221,-4.50128 -4.7893,-0.89846 c -6.86317,-1.28755 -20.69811,0.16334 -30.31422,3.17918 l -8.27538,2.59529 3.06841,-3.31813 c 1.68753,-1.82496 5.70433,-4.5332 8.92611,-6.01828 5.24788,-2.41898 9.24641,-2.78427 38.40122,-3.50804 36.37056,-0.90291 38.74597,-1.42872 49.8091,-11.02599 5.9109,-5.12769 14.0504,-16.00578 12.864,-17.19219 -1.89061,-1.89064 -13.80612,-1.78235 -30.18173,0.27433 -17.77322,2.23218 -32.57832,2.19283 -61.78042,-0.16424 -9.70546,-0.78338 -9.83021,-0.75272 -21.18502,5.20535 -6.67749,3.50379 -13.15655,5.99337 -15.59761,5.99337 h -4.1755 l 4.82576,-3.27918 c 5.07999,-3.45193 8.10662,-7.69416 6.89179,-9.65972 -1.25883,-2.03688 -13.99576,-4.09801 -20.15655,-3.26181 -3.2596,0.44244 -10.22586,1.97076 -15.4805,3.39627 -5.25465,1.42552 -9.86213,2.28368 -10.2388,1.90699 -1.11281,-1.11281 11.20886,-8.38584 17.70339,-10.44967 10.71325,-3.40443 17.11919,-3.71616 42.3423,-2.06044 21.81583,1.43204 27.28585,1.36581 45.01071,-0.54527 59.87356,-6.45546 80.29228,-14.89129 88.38256,-36.51468 7.3115,-19.54172 8.8969,-66.27273 2.84568,-83.87755 -3.80182,-11.06054 -9.86667,-20.27758 -18.37801,-27.93007 -13.48525,-12.12433 -27.82664,-17.14372 -46.23242,-16.18097 -11.32859,0.59256 -12.89611,1.05917 -30.67891,9.13262 -23.22698,10.54506 -30.38588,12.70468 -42.06135,12.68852 -6.94809,-0.008 -10.83579,-0.77376 -15.87594,-3.12055 -8.73937,-4.06921 -9.93989,-6.23437 -2.10975,-3.80493 4.0785,1.26544 9.72308,1.74087 16.59475,1.3978 12.16163,-0.60722 19.82562,-3.77628 36.12,-14.93554 5.68887,-3.89603 12.07063,-7.68584 14.18183,-8.42179 3.74835,-1.30669 3.60048,-1.42183 -6.30914,-4.91033 -5.58112,-1.96474 -13.66222,-4.95989 -17.95792,-6.65592 -7.04489,-2.78142 -9.72433,-3.07378 -27.33653,-2.98289 -17.90967,0.0924 -20.81909,0.45716 -35.14684,4.40596 -16.60239,4.57573 -34.26382,5.8356 -41.00475,2.92511 -2.71708,-1.17316 -1.75,-1.38792 5.8579,-1.30084 9.75161,0.11161 20.3314,-1.96803 28.40785,-5.58398 l 4.99054,-2.23431 -3.80424,-1.32616 c -8.94275,-3.11744 -18.32107,-15.78788 -20.45693,-27.63786 -0.76542,-4.24693 -0.54822,-4.07279 3.2006,2.56632 5.21288,9.23189 8.29578,12.4132 15.32868,15.81775 6.78609,3.2851 19.39517,3.67236 36.54715,1.12245 l 10.84255,-1.61192 -4.45509,-4.71665 c -6.13419,-6.49435 -8.66915,-10.40057 -17.89506,-27.57502 -4.39986,-8.19059 -9.85778,-16.86733 -12.12865,-19.2816 -5.33288,-5.66975 -13.03421,-9.19285 -20.40053,-9.33257 -5.31742,-0.10092 -5.55754,-0.23607 -2.60345,-1.46595 8.98936,-3.74252 22.40595,-0.6069 30.03165,7.01882 l 3.81342,3.81349 -0.0319,-13.44292 c -0.0377,-15.87299 -1.51945,-23.36357 -5.9576,-30.11442 l -3.25804,-4.95588 3.28888,2.15498 c 5.75685,3.77208 9.68739,14.04917 11.18131,29.2354 2.73942,27.84776 6.64008,38.36066 19.40002,52.2859 6.6067,7.21008 22.41426,19.30961 25.22717,19.30961 0.46931,0 0.28209,-1.5026 -0.41623,-3.33911 -0.69822,-1.83648 -1.23794,-7.54785 -1.19945,-12.69191 l 0.0696,-9.35285 2.31041,7.15955 c 4.66049,14.4424 10.23408,21.05639 22.44618,26.63645 5.95703,2.72194 26.95899,8.36744 31.55497,8.48225 0.62028,0.0159 -1.03746,-2.36852 -3.68394,-5.29782 -11.11961,-12.30809 -15.22133,-21.47309 -22.88561,-51.13714 -2.75169,-10.65001 -6.56474,-22.55553 -8.47333,-26.45674 -3.09045,-6.31646 -4.91569,-8.04203 -16.67019,-15.75931 -22.70418,-14.90622 -30.56063,-25.23965 -31.67894,-41.66654 -0.43286,-6.3586 -0.22079,-8.17705 0.78758,-6.75046 0.75904,1.07394 1.3947,3.12416 1.41268,4.55607 0.0628,4.99902 6.16756,15.66325 12.06725,21.07933 3.27013,3.00218 9.65605,7.32328 14.19082,9.60246 4.53485,2.27921 9.74792,5.20427 11.58467,6.50017 l 3.33966,2.3562 4.33613,-12.89714 c 3.88142,-11.54453 4.2637,-13.95914 3.64565,-23.02342 l -0.69059,-10.12628 2.77781,5.8578 c 2.53071,5.33663 2.74588,7.6928 2.4192,26.48188 -0.27986,16.09281 0.11528,22.31334 1.79874,28.31278 1.1865,4.22877 2.5195,7.68234 2.96203,7.6746 0.44263,-0.006 2.85507,-3.58613 5.36093,-7.95192 6.41,-11.16786 17.0309,-21.34035 25.64658,-24.56392 9.32755,-3.48991 9.79754,-3.30775 2.84367,1.10225 -3.22556,2.04558 -7.72396,5.97496 -9.99656,8.73197 -5.19092,6.29751 -12.73646,21.50383 -14.49148,29.20439 -3.14258,13.7881 -0.73304,29.35544 6.70301,43.30688 l 4.11535,7.72121 2.91368,-6.60203 c 1.87339,-4.24506 6.469,-10.13441 12.87251,-16.4965 10.79188,-10.72205 13.60237,-15.69275 13.74375,-24.30798 0.0706,-4.30835 0.34554,-4.98298 1.21018,-2.97072 1.91905,4.46574 1.35109,12.78274 -1.26666,18.54975 l -2.51118,5.53238 h 4.18624 c 2.30249,0 6.37432,-1.17269 9.04854,-2.60601 5.47108,-2.93232 6.35043,-1.84942 1.89622,2.3351 -3.1535,2.96257 -10.29422,5.84505 -17.99254,7.26301 -3.90511,0.71927 -5.23599,1.89086 -7.97888,7.02404 -8.79584,16.46128 -4.22908,29.10343 13.82953,38.28457 14.01539,7.12549 27.21333,6.06418 30.44091,-2.44792 0.75933,-2.00265 1.70619,-8.91319 2.10394,-15.35677 0.39785,-6.44359 1.89922,-16.10899 3.33647,-21.47865 3.38512,-12.64701 3.45494,-24.58414 0.18103,-30.96811 -3.09548,-6.03619 -6.2102,-8.88062 -17.7587,-16.2176 -9.60625,-6.10303 -16.21305,-12.742 -16.21305,-16.29192 0,-1.62132 0.81098,-1.33548 3.57979,1.26171 3.54922,3.32938 12.38337,8.10524 21.1532,11.43576 2.50586,0.95165 6.3134,2.99616 8.46124,4.54336 6.93009,4.99209 6.83533,5.04196 5.61537,-2.95355 -1.38803,-9.09659 -4.12811,-17.80649 -9.06314,-28.80869 -2.77906,-6.19549 -6.21795,-10.73944 -13.29968,-17.57342 -12.48172,-12.04515 -20.83097,-16.83769 -36.29329,-20.83271 -20.98707,-5.42244 -28.12373,-9.22216 -30.21743,-16.08832 -0.88456,-2.90106 -0.82684,-2.89177 2.46206,0.39706 5.02226,5.02236 11.17232,7.07538 25.15899,8.39865 6.9327,0.65589 12.73152,1.06596 12.88615,0.91126 0.15473,-0.15468 -1.9761,-4.77298 -4.73504,-10.26284 -5.84775,-11.63563 -8.50399,-22.68507 -7.08588,-29.47529 l 0.99172,-4.74845 1.02587,7.41981 c 1.27652,9.2332 5.12244,16.86642 15.49645,30.75664 l 8.09589,10.84001 2.44793,-5.46777 c 1.34644,-3.00728 5.74369,-9.02753 9.77181,-13.37833 4.02812,-4.35079 8.10198,-9.69722 9.05318,-11.8809 1.2864,-2.95336 1.73512,-3.3035 1.75175,-1.36689 0.0281,3.24244 -3.38822,10.68465 -9.52492,20.7512 -7.23385,11.86623 -6.8624,13.15935 8.30264,28.9043 7.15957,7.43328 13.01738,14.09267 13.01738,14.7986 0,3.1757 2.44088,0.78331 4.37927,-4.29234 1.69043,-4.42616 2.12938,-10.4813 2.12938,-29.36588 0,-17.4233 -0.39563,-23.54548 -1.47816,-22.87633 -1.06339,0.65712 -1.30428,-1.18693 -0.85808,-6.56738 0.55345,-6.67483 0.43731,-7.15081 -1.07905,-4.41661 -0.93467,1.68542 -1.72012,5.07034 -1.74546,7.52199 l -0.0464,4.45755 -3.25437,-3.05729 c -4.70149,-4.41684 -4.52306,-13.11744 0.4285,-20.89835 2.02562,-3.183 4.66165,-6.5912 5.85781,-7.5738 1.69526,-1.39252 2.1639,-3.97657 2.12474,-11.71564 -0.0503,-9.74792 -0.12533,-9.97654 -4.23052,-12.53253 -2.29931,-1.4319 -5.49188,-5.24311 -7.09459,-8.46934 -2.77336,-5.58261 -6.60816,-26.70142 -5.11887,-28.19066 1.09568,-1.09568 13.25595,3.29804 18.04795,6.52103 4.14214,2.78595 4.31863,3.25625 4.69066,12.49652 0.34399,8.54125 0.16401,9.41707 -1.62699,7.93029 -2.56959,-2.13257 -2.537,-0.85664 0.15946,6.20157 1.72999,4.52996 1.83405,5.89768 0.51149,6.71513 -1.01446,0.62693 -1.31927,2.10315 -0.78304,3.7925 2.20308,6.94168 7.03163,-0.35271 8.92292,-13.47974 1.295,-8.99027 1.17315,-10.26567 -1.62659,-17.02044 l -3.02635,-7.30193 2.92132,-11.28305 c 5.21926,-20.157 10.40591,-28.29593 23.30822,-36.57533 7.90508,-5.07255 14.87763,-5.2307 28.55155,-0.64752 11.00202,3.68761 17.79565,7.49661 33.42392,18.7401 5.72744,4.12065 15.78879,10.51453 22.35846,14.20862 9.35772,5.26179 13.37027,8.47248 18.52685,14.82376 3.62021,4.45897 9.56274,11.62191 13.20577,15.91766 3.64303,4.29572 10.49034,13.66822 15.2164,20.82777 4.72575,7.15955 11.95283,16.64245 16.05996,21.07315 19.27081,20.78864 29.61106,38.10867 37.63723,63.04324 2.16187,6.71665 6.70979,17.68624 10.10583,24.37687 l 6.1751,12.1648 0.45307,15.92312 c 0.41711,14.6566 0.16179,16.79522 -3.20746,26.88729 -3.35146,10.03813 -3.63433,12.36721 -3.34827,27.57546 0.39098,20.78457 -1.62873,46.24727 -4.41321,55.63509 -3.27448,11.04126 -13.83252,32.52592 -22.20586,45.1879 -9.12243,13.79471 -10.34412,17.44799 -12.2269,36.56513 -0.80441,8.16543 -2.57462,19.09344 -3.93442,24.28448 -2.84578,10.86483 -9.91241,27.94793 -14.69542,35.52446 -1.80716,2.86268 -5.04606,9.0874 -7.19768,13.83275 -5.36867,11.84042 -16.79417,28.98109 -23.7141,35.57654 -6.92186,6.59711 -65.09755,44.97335 -71.34981,47.06668 -5.63742,1.88745 -36.30027,1.92608 -46.40291,0.0585 -9.17552,-1.69619 -14.14595,-4.03557 -19.63695,-9.2423 l -4.07628,-3.86517 -4.02763,8.06 c -6.34483,12.69714 -6.44502,15.38392 -0.98505,26.43406 2.58709,5.23582 4.7037,10.97222 4.7037,12.74751 0,3.51147 -5.90461,13.62279 -9.78429,16.75488 -2.22666,1.79763 -2.33536,1.74598 -1.36897,-0.65086 z m 45.06912,-60.36571 c 3.18291,-2.05709 8.10276,-6.15756 10.93277,-9.11215 5.96893,-6.23138 8.59848,-7.12989 4.4518,-1.52118 -2.48584,3.36229 -2.61456,4.13094 -1.01513,6.05943 2.76348,3.33239 9.50423,5.71062 16.18568,5.71062 3.65289,0 5.66372,0.5061 5.17206,1.30172 -1.9115,3.09277 2.74211,0.61935 18.21797,-9.68313 l 16.50076,-10.98487 -4.66755,-0.87562 c -2.56708,-0.4816 -4.66745,-1.31037 -4.66745,-1.84173 0,-0.53134 4.21825,-1.66272 9.37396,-2.51416 5.15563,-0.85141 11.25297,-2.70947 13.54976,-4.12898 6.93937,-4.28872 18.88331,-18.05576 28.43077,-32.77059 6.97902,-10.75602 9.40538,-13.59187 10.70589,-12.51253 2.55257,2.11837 4.6659,-4.2727 5.33588,-16.13535 0.42784,-7.57648 1.02964,-10.08845 2.41699,-10.08845 1.0162,0 2.19902,1.75732 2.62839,3.9052 0.42967,2.14787 1.14743,3.90521 1.59527,3.90521 1.5915,0 9.27436,-20.86969 9.27436,-25.19257 0,-2.47651 -1.17818,-5.89404 -2.69811,-7.82616 -3.4799,-4.42403 -0.81166,-4.49202 3.0271,-0.0773 l 2.91493,3.35278 0.85179,-3.02736 c 1.37682,-4.89461 1.08457,-14.40014 -0.58951,-19.167 -1.22519,-3.48838 -2.35714,-4.50696 -5.35233,-4.81605 -3.11947,-0.3219 -4.74743,0.68571 -9.10347,5.63441 -5.03629,5.72155 -5.28347,6.39432 -4.88572,13.2996 0.30231,5.24568 -0.66746,10.93062 -3.47873,20.39341 -2.14369,7.21612 -4.30643,15.84635 -4.80622,19.17832 -0.49958,3.33197 -1.39779,6.05816 -1.99583,6.05816 -0.59793,0 -2.11217,-3.36825 -3.36461,-7.48501 -1.25255,-4.11672 -2.39697,-7.67202 -2.54319,-7.90066 -0.14584,-0.22863 -2.83302,0.75369 -5.97038,2.18291 -5.95654,2.71348 -15.93898,5.36835 -10.82088,2.87784 1.43204,-0.69678 5.67871,-2.53845 9.43749,-4.09259 3.7587,-1.55412 6.83407,-3.60376 6.83407,-4.55478 0,-0.95098 2.96628,-7.36496 6.59152,-14.25325 5.29053,-10.05246 6.42345,-13.289 5.74021,-16.39959 -0.73738,-3.35738 -0.0522,-4.72936 5.12419,-10.26366 3.28658,-3.51354 5.96989,-6.85265 5.96322,-7.4203 -0.0251,-2.08834 -5.09682,-25.88911 -6.32268,-29.67026 -0.69638,-2.14788 -1.55475,-9.53878 -1.90715,-16.42427 -1.0276,-20.07481 -5.07642,-25.55766 -25.24911,-34.1919 -13.30258,-5.69375 -18.45027,-6.72946 -21.66276,-4.35851 -2.16913,1.60094 -2.46641,3.97814 -2.73613,21.87671 -0.33856,22.45356 -1.79941,28.93929 -6.37237,28.28707 -2.48836,-0.35487 -2.81726,-1.34339 -3.16511,-9.50819 -0.34698,-8.14758 -0.19139,-8.84478 1.46568,-6.58622 1.77737,2.42203 1.94661,2.34594 4.11641,-1.84986 1.79352,-3.4684 2.15095,-6.71696 1.72293,-15.66577 -0.47387,-9.91435 -1.1803,-12.6233 -5.79602,-22.23229 -5.59447,-11.64608 -15.31715,-23.47454 -24.42468,-29.7143 -5.09712,-3.49232 -5.94205,-3.64262 -19.00246,-3.38083 -7.51759,0.1508 -15.13284,0.76214 -16.92268,1.35878 -5.4295,1.8098 9.51099,-14.35616 21.00756,-22.73073 9.96329,-7.25753 17.93549,-17.16162 21.96786,-27.29107 1.52217,-3.8241 1.89468,-4.09016 2.73323,-1.95261 2.25433,5.74655 1.09519,10.32873 -4.71812,18.65238 -6.56465,9.39924 -7.30744,14.22849 -3.93345,25.56708 2.38856,8.02645 14.79088,20.66026 29.8216,30.37823 12.26336,7.92874 20.31486,10.5373 32.52417,10.5373 8.47274,0 9.68651,0.37529 17.3389,5.36089 9.92373,6.46561 16.15832,8.82505 23.52029,8.90107 l 5.5324,0.0572 -0.0657,5.5324 c -0.0367,3.04279 -0.5194,9.60999 -1.07228,14.59377 -0.82036,7.39282 -0.55876,10.2693 1.42062,15.62084 1.33446,3.60769 2.72974,7.42886 3.10109,8.49152 0.45491,1.30259 1.33919,0.45434 2.71378,-2.60347 1.12132,-2.49456 5.14363,-10.97916 8.93859,-18.85468 3.79496,-7.8755 7.28626,-16.07644 7.75896,-18.22431 0.47251,-2.14785 1.68782,-6.11372 2.70092,-8.81305 1.01281,-2.69931 1.84149,-8.09742 1.84149,-11.99576 0,-6.11682 -0.57018,-7.73754 -4.16303,-11.82951 -3.88635,-4.42623 -4.5545,-4.69746 -10.04645,-4.07846 -5.52447,0.62271 -5.68732,0.5547 -2.67095,-1.1154 4.43989,-2.45814 7.03338,-2.29859 13.12125,0.8072 3.27167,1.669 5.93043,4.24387 7.05687,6.83411 l 1.80744,4.15615 0.0502,-6.51726 c 0.0687,-8.7619 -1.61219,-14.05035 -6.37732,-20.06685 -4.80119,-6.06205 -5.37098,-13.82423 -1.47708,-20.12474 1.37951,-2.23236 3.48171,-6.98777 4.67111,-10.56751 1.18959,-3.57979 3.86827,-9.57518 5.95268,-13.3231 2.0847,-3.74792 3.79022,-8.53567 3.79022,-10.63944 0,-4.7352 -4.90419,-10.77717 -11.1553,-13.74357 -5.3265,-2.52763 -5.33037,-4.05796 0,-2.03328 4.85197,1.84469 5.95364,1.68769 5.95364,-0.84844 0,-3.60127 -6.73454,-30.88867 -8.0221,-32.50471 -0.65606,-0.82335 -1.76595,-5.05576 -2.4664,-9.40537 -1.86411,-11.57592 -7.09884,-22.68995 -17.07529,-36.25426 -9.25414,-12.58225 -9.93978,-13.0266 -21.25136,-13.77557 -6.10537,-0.40427 -6.00452,-0.44551 1.62718,-0.66561 4.47472,-0.12893 8.13583,-0.62712 8.13583,-1.10681 0,-0.47972 -2.11729,-4.14238 -4.70536,-8.13923 -5.50009,-8.49461 -17.5386,-18.31598 -22.48631,-18.34498 -1.86953,-0.0114 -4.27762,-0.62544 -5.35174,-1.36548 -1.44131,-0.99325 -0.34195,-1.24365 4.19891,-0.95636 3.38328,0.21412 6.16571,-0.05 6.18322,-0.58714 0.24515,-7.52438 -0.5255,-9.06255 -11.49019,-22.93275 -11.87247,-15.01879 -17.86982,-19.6991 -25.24274,-19.6991 -6.10711,0 -5.83701,3.26916 1.44113,17.43794 5.81632,11.32295 6.75147,14.17202 6.72091,20.47843 -0.0232,4.95867 0.59542,7.84921 1.91721,8.94613 2.31921,1.92492 2.58893,5.20694 0.42783,5.20694 -0.83855,0 -2.51978,-0.90057 -3.73607,-2.00122 -2.35093,-2.12771 -22.7038,-8.16448 -32.48953,-9.6366 -3.22189,-0.48468 -9.94531,-2.5298 -14.94097,-4.54473 -4.99597,-2.01493 -13.19698,-4.39539 -18.22437,-5.28995 -10.37525,-1.84601 -16.58749,-4.35176 -15.90116,-6.4137 0.96019,-2.884 5.12747,-2.09612 16.41516,3.10351 13.51397,6.22517 25.7197,9.11557 38.50904,9.11931 10.23504,0.002 10.97969,-0.30594 14.23299,-5.90475 2.03083,-3.49478 2.1315,-4.87942 0.80527,-11.06475 -2.35751,-10.99345 -3.64642,-13.06293 -19.37584,-31.1096 -11.81938,-13.56065 -15.74015,-17.22099 -19.72582,-18.41511 -5.8871,-1.76384 -14.33772,-0.53459 -14.33772,2.08559 0,1.00069 3.3681,5.47394 7.485,9.94058 l 7.48422,8.12123 -7.11432,-3.8163 c -3.91275,-2.09899 -11.94761,-8.35615 -17.85484,-13.90479 -9.68506,-9.09701 -11.25007,-10.08846 -15.92524,-10.08846 -4.32666,0 -5.71285,0.70004 -8.37683,4.23065 -7.91137,10.48547 -17.46046,30.85805 -15.7563,33.61556 1.69014,2.73446 4.30093,0.75459 9.64319,-7.31243 3.10273,-4.68508 6.84731,-9.36312 8.3214,-10.39566 2.49243,-1.74571 3.09549,-1.43401 8.60013,4.44488 7.14052,7.62628 13.93038,11.98483 23.49292,15.08073 7.45917,2.41495 13.01738,6.41924 13.01738,9.37829 0,2.64293 -2.79124,2.07206 -8.35535,-1.70893 -6.73213,-4.57451 -21.16936,-8.24983 -27.66563,-7.04284 -9.31535,1.73077 -17.04433,7.91414 -22.34598,17.87687 -3.31617,6.2319 -0.5581,14.70253 6.5744,20.19135 2.05482,1.58121 2.37231,2.2913 1.0249,2.2913 -1.07412,0 -3.41703,-1.14552 -5.20687,-2.5456 -7.2911,-5.7031 -15.04194,-1.03466 -18.0382,10.86458 -1.8175,7.21785 -0.11847,13.31892 3.3387,11.99212 2.03219,-0.77987 2.03538,-0.67188 0.0454,1.52688 -3.90889,4.31929 -0.60025,23.12887 4.86657,27.66593 1.61123,1.33709 1.97658,1.29591 1.97658,-0.2228 0,-1.02477 0.73246,-2.86727 1.62728,-4.09444 1.38706,-1.90212 1.62718,-1.32578 1.62718,3.90696 v 6.13823 l 7.64534,3.27319 7.64533,3.27317 2.53158,-3.12623 2.53158,-3.12627 -0.83496,3.32608 c -0.76678,3.05543 -0.42387,3.39177 4.21602,4.1337 6.28119,1.00441 13.99857,5.21616 21.33493,11.64367 4.6479,4.07206 5.38123,5.31612 4.22027,7.15953 -3.31743,5.26803 -8.84943,3.76066 -22.75438,-6.2 -9.46022,-6.77675 -11.6954,-7.81935 -16.7727,-7.82362 -7.63421,-0.006 -12.91603,4.7898 -18.36128,16.67364 -3.74168,8.1654 -3.9378,9.36506 -3.23,19.75799 1.82157,26.74338 2.30587,85.5979 0.80692,98.0361 -1.38688,11.50885 -1.31725,13.11118 0.70499,16.19726 3.99301,6.09418 9.9336,10.54978 15.26745,11.45092 6.09803,1.03025 11.74491,3.3407 17.17847,7.02857 5.63945,3.82769 7.69881,3.35471 9.63903,-2.2138 0.93536,-2.68483 3.28899,-6.93174 5.23038,-9.43759 1.94158,-2.50584 3.91159,-5.58119 4.37791,-6.83412 1.91972,-5.15761 10.41249,-0.37487 10.32526,5.8147 -0.0232,1.6346 -1.24684,5.6447 -2.71909,8.91132 -4.29455,9.52648 -6.67673,20.57451 -6.67673,30.96428 0,8.57281 0.46594,10.42642 4.10143,16.32365 3.17216,5.14557 4.39773,9.08547 5.40938,17.39198 0.7194,5.90661 1.69081,10.73931 2.15849,10.73931 0.46786,0 1.97639,0.82331 3.35253,1.82956 2.34938,1.71789 2.29127,1.78928 -0.95102,1.16945 -5.40899,-1.034 -8.14289,5.28359 -8.18186,18.90745 -0.0271,9.2504 0.33993,11.11329 2.4959,12.69193 2.46776,1.80696 2.46071,1.85022 -0.29873,1.85022 -1.69091,0 -5.04692,2.40994 -8.35805,6.00215 -6.03643,6.54863 -17.07781,13.54066 -21.20649,13.42917 -2.31178,-0.0624 -2.2612,-0.20753 0.45152,-1.29421 8.23737,-3.30014 15.80204,-13.09699 15.81346,-20.4798 0,-2.3624 -0.91446,-6.07639 -2.04023,-8.25333 -1.12556,-2.17694 -1.71809,-4.81427 -1.31646,-5.86078 0.79503,-2.07209 -0.0619,-1.72522 -6.14919,2.49315 -6.07616,4.20962 -5.36228,1.57595 0.98187,-3.62263 3.26211,-2.67307 8.02278,-8.30351 10.57941,-12.51209 2.55663,-4.2086 5.19169,-7.65199 5.85597,-7.65199 2.93794,0 0.9866,-14.21573 -4.01236,-29.22853 -2.84956,-8.55816 -6.17548,-20.18911 -7.39128,-25.84652 -1.46066,-6.79747 -2.89791,-10.49037 -4.23739,-10.88809 -1.11464,-0.33103 -4.66271,-1.81139 -7.88449,-3.28967 -13.56348,-6.2234 -13.48351,-6.20492 -17.79101,-4.11877 -2.20356,1.06729 -5.98517,4.97889 -8.40322,8.69242 -3.94515,6.05838 -4.44454,7.87293 -4.8628,17.66582 -0.39524,9.24978 -0.0232,11.87694 2.49203,17.2298 2.51108,5.36106 3.25776,6.07266 4.94055,4.70693 1.69082,-1.37241 1.82088,-1.22619 0.88409,0.99449 -0.60383,1.43194 -1.52168,5.8253 -2.03944,9.76304 -0.51787,3.93775 -1.70542,10.46388 -2.63893,14.50249 -1.35728,5.87144 -1.38029,8.76013 -0.11392,14.41477 2.41341,10.78423 4.28545,12.73829 12.2035,12.73829 8.29065,0 7.33751,1.28859 -1.7824,2.40987 -5.95471,0.73209 -7.27262,1.44393 -9.90324,5.34924 -2.48991,3.69638 -2.96608,5.89563 -2.65392,12.25553 0.37019,7.54103 0.50365,7.79697 4.93649,9.45859 l 4.55604,1.70784 -4.52075,-0.29513 -4.52073,-0.29515 -0.42377,9.76304 c -0.23277,5.36965 -1.00392,11.52035 -1.71355,13.66823 -0.70953,2.14786 -1.64469,9.26853 -2.07804,15.82375 l -0.78795,11.91854 5.06984,2.56999 c 2.78824,1.4135 7.70587,3.0108 10.92774,3.54955 4.99953,0.83606 5.43558,1.13621 2.97576,2.04926 -2.58188,0.95839 -2.7368,1.48546 -1.48918,5.06501 0.76611,2.19744 2.94172,4.86619 4.83445,5.93055 l 3.44188,1.93522 -3.9052,-0.33882 c -3.17265,-0.27525 -4.44995,-1.41875 -6.80863,-6.09534 -2.21834,-4.39814 -4.06147,-6.15979 -7.8104,-7.46538 -2.6988,-0.93988 -4.99896,-1.71768 -5.11123,-1.72847 -0.42146,-0.0405 -2.23074,37.16266 -1.89806,39.03248 0.53236,2.99241 4.96017,6.99096 9.62056,8.68768 6.92863,2.5226 11.75516,1.98065 17.93616,-2.01396 z m 32.47281,-27.52938 c 0,-5.35728 3.39217,-11.89528 10.57535,-20.38246 l 3.50271,-4.13865 -2.44957,-10.83132 c -1.34722,-5.95723 -2.46467,-11.56356 -2.48285,-12.45848 -0.0619,-3.04487 -3.98363,-1.63929 -9.50006,3.4055 -8.2486,7.5431 -12.49217,9.35084 -18.6166,7.93043 -2.81117,-0.65194 -7.45425,-1.26866 -10.31792,-1.37045 -5.04199,-0.17927 -5.08328,-0.21664 -1.30196,-1.17876 2.14795,-0.54655 6.93502,-1.06303 10.63821,-1.14773 5.64322,-0.12916 7.64465,-0.89529 12.36654,-4.73406 3.09839,-2.51902 7.68383,-5.55764 10.18968,-6.75245 4.98097,-2.37498 13.38401,-12.87809 18.62182,-23.27589 6.27326,-12.45281 13.34339,-39.36553 15.01709,-57.164 0.7486,-7.95869 1.18668,-9.11216 3.46054,-9.11216 1.70881,0 2.74646,1.00648 3.01937,2.9289 0.22891,1.61089 0.81456,2.92819 1.30187,2.9273 0.48701,-8.9e-4 0.68642,6.48478 0.44262,14.4126 -0.24379,7.9278 -0.12301,15.69013 0.26904,17.24961 0.84405,3.36117 7.27582,6.88726 14.38076,7.88399 2.80207,0.3931 5.73092,1.40796 6.50863,2.2553 1.0661,1.16155 0.77366,1.31056 -1.18939,0.60569 -1.43193,-0.5142 -5.23947,-1.23965 -8.46134,-1.61208 -4.88774,-0.56504 -6.38457,-0.17906 -9.03945,2.33123 -1.74972,1.65466 -3.94263,3.12012 -4.87247,3.25659 -2.08896,0.30663 -12.12256,8.1493 -12.12256,9.47557 0,0.53087 -3.29091,5.30879 -7.31275,10.61757 l -7.31276,9.65235 0.65384,7.82281 c 0.77858,9.31878 5.96186,22.79207 8.76451,22.78235 1.07412,-0.005 3.70995,-1.1706 5.858,-2.59308 5.86409,-3.88364 7.12882,-3.02776 2.00163,1.35464 -2.59667,2.21952 -6.00741,3.85232 -8.04714,3.85232 -2.44474,0 -4.39754,1.20362 -6.30991,3.88945 -3.52776,4.95423 -12.12304,23.48471 -11.28296,24.32476 0.34932,0.3492 1.81819,0.002 3.26425,-0.7723 3.16239,-1.6924 4.10228,-1.76446 4.10228,-0.31441 0,1.68369 -6.18825,4.11415 -10.47506,4.11415 -3.62031,0 -3.84399,-0.3047 -3.84399,-5.23483 z m 44.25912,-6.97226 c 0,-1.70222 0.98815,-3.89891 2.19621,-4.88151 1.93335,-1.5727 2.08924,-1.50112 1.30167,0.59793 -0.49205,1.31149 -0.89454,3.50816 -0.89454,4.88152 0,1.37335 -0.58576,2.497 -1.30168,2.497 -0.71601,0 -1.30166,-1.39273 -1.30166,-3.09494 z m 5.93266,-28.47216 c -1.01668,-3.34703 -1.76934,-7.48499 -1.36134,-7.48499 0.23238,0 1.30853,-0.33998 2.39145,-0.75549 1.47304,-0.5653 2.0733,0.33446 2.38441,3.57409 0.34784,3.62267 1.05342,4.46476 4.32103,5.15754 3.48492,0.73892 3.30563,0.84455 -1.66818,0.98201 -3.44267,0.0953 -5.76207,-0.468 -6.06737,-1.47316 z m -106.02996,-2.38852 c -1.7149,-0.68594 -2.82857,-1.53648 -2.47501,-1.89007 0.35346,-0.35359 2.63516,0.22189 5.07042,1.27876 4.82189,2.09272 2.4844,2.64328 -2.59541,0.61131 z m 98.79533,-1.70286 c 0,-0.28137 0.90925,-0.86043 2.0204,-1.28682 1.15845,-0.44453 1.68095,-0.22621 1.22489,0.51161 -0.76447,1.2369 -3.24529,1.82952 -3.24529,0.77521 z m 4.77326,-25.08921 c -2.83709,-2.83709 3.12177,-4.09489 8.82533,-1.86285 2.34678,0.91832 2.29872,1.05445 -0.65083,1.84334 -4.11641,1.10101 -7.08608,1.10809 -8.1745,0.0205 z m 38.26804,-98.23897 c -2.08171,-3.42312 -4.00665,-4.69451 -8.85677,-5.84999 l -6.19696,-1.4763 6.0901,-0.15468 c 6.56327,-0.16674 9.455,1.67042 11.62867,7.38745 1.87872,4.94114 0.31642,4.99594 -2.66504,0.0934 z m 19.96952,-66.1236 c -14.6642,-9.7613 -13.98735,-8.72042 -15.69635,-24.1417 -1.84206,-16.62088 -5.15542,-24.19761 -13.24503,-30.28631 -4.87816,-3.67165 -6.66482,-4.24023 -13.32422,-4.24023 -7.53055,0 -7.76264,0.10844 -11.13664,5.20697 -3.99253,6.0332 -5.61701,7.01549 -2.29127,1.38553 1.97987,-3.35185 2.05163,-4.50781 0.58363,-9.40769 -1.76635,-5.89516 -7.25193,-14.66635 -11.32908,-18.11483 -2.65924,-2.24901 -13.98967,-5.10469 -20.25403,-5.10469 -3.39295,0 -3.85472,0.39426 -3.23532,2.76285 l 0.72259,2.76287 -2.6134,-2.80496 c -2.13973,-2.29693 -3.48105,-2.64568 -7.40472,-1.9254 -2.63526,0.48378 -4.98688,1.38139 -5.22535,1.99471 -0.7579,1.94772 -3.81054,1.20198 -4.71348,-1.15151 -1.02132,-2.66141 3.03088,-6.44732 8.24075,-7.69911 5.49332,-1.31986 15.32277,-6.63338 20.211,-10.92542 11.96811,-10.50803 8.17615,-35.68984 -8.04173,-53.40336 -4.33506,-4.73485 -8.3658,-7.77944 -11.60363,-8.76448 -4.41823,-1.34428 -14.28578,-8.93454 -13.12443,-10.09576 0.24941,-0.24953 3.65279,1.08704 7.56283,2.97017 8.9914,4.33023 18.85875,5.30697 24.82884,2.45776 2.4254,-1.15764 7.19265,-4.49085 10.59333,-7.40713 5.36132,-4.59749 6.18323,-5.95972 6.18323,-10.24855 0,-2.73982 0.84473,-5.64721 1.89332,-6.5176 1.60939,-1.33564 1.74816,-1.01785 0.92442,2.11864 -1.22788,4.67681 -0.48276,9.5478 1.46065,9.5478 0.82153,0 -0.2141,1.318 -2.30403,2.92891 -7.32524,5.6497 -9.61621,8.53389 -11.07146,13.93822 -1.29025,4.79121 -1.04694,6.73879 2.01102,16.09589 1.91334,5.85483 4.3634,12.05383 5.44458,13.77557 1.43377,2.28345 1.78801,5.3435 1.30911,11.31013 -0.59203,7.37526 -0.35307,8.46504 2.4314,11.08075 4.54492,4.26979 14.47736,4.73146 26.88559,1.24971 l 9.97122,-2.79794 13.71658,13.26276 c 7.54388,7.29454 13.72198,13.90913 13.72884,14.69907 0,0.78996 2.07252,4.02768 4.59018,7.19492 3.32942,4.18835 4.18315,6.14066 3.13185,7.15955 -1.92399,1.8645 -10.33813,-7.67129 -10.33813,-11.71632 0,-3.41393 -11.02165,-15.32554 -19.06812,-20.60799 l -5.4001,-3.54499 -15.42779,1.39766 c -14.00833,1.26905 -15.69732,1.70281 -18.35665,4.71401 -2.34455,2.65481 -2.92885,4.87709 -2.92885,11.13979 0,9.16118 1.29393,12.11521 6.48262,14.79832 4.96289,2.56642 8.5096,2.48295 13.25538,-0.31195 3.68887,-2.17241 3.92832,-2.17126 5.16065,0.0244 0.71099,1.26637 4.08431,5.95261 7.49641,10.4139 3.41199,4.46129 8.28156,10.84123 10.82088,14.17762 5.01191,6.58471 11.59638,23.29713 14.26026,36.19481 1.50127,7.26764 2.24987,8.51859 7.24583,12.10637 3.06435,2.2007 5.57156,4.78062 5.57156,5.73318 0,2.35679 0.10029,2.39608 -8.58474,-3.38491 z m -52.59677,-22.6667 c 0,-0.24592 3.00042,-2.97715 6.66763,-6.06941 3.87976,-3.27142 6.08303,-4.52971 5.26934,-3.00928 -1.91334,3.57485 -11.93697,11.19846 -11.93697,9.07869 z m -9.11208,-20.87216 c 0,-0.27033 1.02509,-1.29544 2.27801,-2.27804 2.0646,-1.61919 2.11063,-1.57316 0.49137,0.49148 -1.70058,2.16834 -2.76938,2.85794 -2.76938,1.78656 z M 604.54382,353.9174 c -3.36674,-1.96303 -7.9955,-6.20517 -10.286,-9.42695 -2.29079,-3.22181 -6.12616,-8.05621 -8.52333,-10.7431 -3.18125,-3.56579 -4.35837,-6.11478 -4.35837,-9.43757 0,-7.65383 3.2886,-5.36416 8.88665,6.18699 8.00711,16.52192 12.9905,22.31748 21.29286,24.7628 5.63741,1.66049 6.19628,2.05571 3.01473,2.13259 -2.14795,0.0519 -6.65979,-1.51172 -10.02654,-3.47476 z m 148.01048,-8.19933 c -6.44366,-4.3335 -14.05863,-9.08296 -16.92259,-10.55437 -2.86367,-1.47143 -6.78078,-4.14945 -8.70437,-5.95115 -2.4546,-2.29908 -5.06201,-3.31687 -8.74469,-3.41341 -6.43553,-0.1688 -5.26364,-1.80934 1.69643,-2.37492 8.17818,-0.6646 8.47024,-3.15752 1.53242,-13.08196 -7.92367,-11.33524 -11.86174,-14.47978 -22.51039,-17.97495 -4.85661,-1.59408 -9.3054,-3.1696 -9.88623,-3.50114 -0.58091,-0.33154 1.27044,-2.75067 4.11391,-5.37583 5.7345,-5.29405 8.2394,-13.04701 5.58732,-17.29359 -1.97418,-3.16105 -1.87351,-3.78284 0.46699,-2.8847 1.35496,0.51993 1.95269,-0.0902 1.95269,-1.99347 0,-1.50849 0.58576,-2.74274 1.30168,-2.74274 1.76141,0 1.65001,-6.01026 -0.17765,-9.52316 -1.43609,-2.76187 -1.383,-2.75575 1.84613,0.21233 2.7102,2.49119 4.12095,2.88078 7.63624,2.10873 3.88538,-0.85341 4.13729,-0.73729 2.55044,1.1749 -0.96862,1.16706 -2.82412,2.12189 -4.12328,2.12189 -1.99573,0 -2.24543,0.75728 -1.60891,4.88153 0.94173,6.10212 0.66332,5.85697 4.84511,4.26705 1.93567,-0.73599 5.38529,-1.28214 7.66544,-1.21368 3.92164,0.11777 3.81681,0.23407 -1.93703,2.15002 -4.0729,1.35617 -6.32549,2.92827 -6.81637,4.75705 -0.86408,3.21845 -1.02354,15.09797 -0.20279,15.09797 0.31148,0 2.21516,-0.58714 4.23062,-1.30476 l 3.66441,-1.30479 -3.57969,2.98085 c -1.96895,1.63947 -3.5797,4.1951 -3.5797,5.6792 0,5.44945 13.55362,22.70493 21.69806,27.62436 4.77111,2.88187 6.07298,4.63972 8.54906,11.54352 2.71696,7.57605 3.62503,8.64833 13.0224,15.37633 5.5559,3.97782 10.10168,7.49449 10.10168,7.81486 0,1.50155 -2.81019,3.1e-4 -13.66821,-7.30207 z M 605.27985,265.81351 c -3.48172,-2.46287 -8.55766,-5.71224 -11.28013,-7.22082 -4.56253,-2.52831 -5.25523,-2.59056 -8.8534,-0.79554 -3.63462,1.8132 -3.85259,1.78693 -3.16443,-0.38106 0.50258,-1.58357 -0.20502,-2.7833 -2.21148,-3.75056 -2.7956,-1.34752 -2.72849,-1.42678 1.28019,-1.51027 2.32686,-0.0486 4.23053,-0.67388 4.23053,-1.38983 0,-2.31059 1.94941,-1.38384 3.27129,1.55524 0.87819,1.95267 4.76087,4.20719 12.26636,7.12272 11.52752,4.47787 15.29675,7.04593 13.82885,9.42141 -1.34548,2.17695 -2.51544,1.79586 -9.36778,-3.05129 z m 68.27533,-5.52341 c 0.93969,-0.37604 2.06256,-0.3298 2.49512,0.1027 0.43258,0.43255 -0.33624,0.74023 -1.70851,0.68369 -1.51655,-0.0624 -1.82495,-0.37091 -0.78661,-0.78646 z m 6.4275,-1.27464 c 0.89474,-0.36112 2.35936,-0.36112 3.25419,0 0.89501,0.36111 0.16168,0.65657 -1.627,0.65657 -1.79014,0 -2.52231,-0.29546 -1.62719,-0.65657 z m -49.70776,-3.96323 c -0.70643,-1.85524 -0.55692,-2.00477 0.7285,-0.72873 0.8898,0.88301 1.28968,1.93339 0.88893,2.33419 -0.40066,0.40078 -1.12857,-0.32169 -1.61743,-1.60546 z m -6.68329,-7.54113 c -2.73573,-2.50584 -6.04774,-4.55608 -7.36014,-4.55608 -1.3126,0 -6.02444,-1.83656 -10.471,-4.08122 -4.44667,-2.24464 -10.08118,-4.7723 -12.52099,-5.617 -3.84032,-1.32953 -2.79337,-1.45939 7.79658,-0.96687 7.40318,0.34432 12.44633,1.14858 12.77407,2.03723 0.29776,0.80756 3.27313,4.10431 6.61164,7.32611 10.09481,9.74165 12.73354,14.61764 3.16984,5.85783 z m 123.00796,286.99255 c 1.91788,-8.64586 1.39499,-15.21905 -2.05937,-25.88421 -1.85251,-5.71908 -3.38173,-7.80704 -8.1044,-11.06477 -3.20176,-2.20849 -7.79948,-5.71507 -10.21762,-7.79239 l -4.39667,-3.77698 0.67704,6.38045 c 0.37223,3.50922 1.00488,10.32066 1.40582,15.13647 0.8752,10.51502 3.92871,18.07412 11.18131,27.68004 7.1589,9.48195 9.28751,9.3565 11.51389,-0.67861 z m -380.48843,6.23413 c -1.27411,-4.75464 -0.92394,-18.14546 0.61988,-23.7062 0.78574,-2.83024 3.35988,-7.07716 5.7204,-9.43759 3.50957,-3.50964 5.30106,-4.29174 9.8306,-4.29174 5.16423,0 5.40445,0.154 3.55174,2.27804 -2.66281,3.05275 -4.97149,7.63081 -6.3278,12.54793 -1.22014,4.42379 -1.55659,4.75766 5.73006,-5.68573 2.02204,-2.89803 4.21873,-4.93403 4.88146,-4.52441 0.66283,0.40963 1.20506,3.71641 1.20506,7.3484 0,10.10434 -5.16239,16.80407 -19.6968,25.56244 l -4.72693,2.84839 z m 50.42599,-13.56441 c -1.35882,-5.41415 0.51603,-19.47342 3.33329,-24.99576 3.62049,-7.09671 8.44529,-10.59099 14.62396,-10.59099 h 5.07033 l -2.60469,3.57978 c -2.72771,3.74881 -7.70172,14.95 -5.63597,12.69193 0.6549,-0.71595 3.10168,-3.7913 5.43704,-6.83412 2.33536,-3.0428 4.78282,-5.53238 5.43858,-5.53238 1.87814,0 1.39035,12.76605 -0.63662,16.66178 -2.57578,4.95073 -6.68997,8.47381 -16.06373,13.75578 l -8.12964,4.58098 z m 42.49607,-9.85263 c 0.0116,-0.90861 0.79898,-4.96017 1.75068,-9.00347 2.28043,-9.68855 7.74986,-18.80549 12.87048,-21.45346 4.27791,-2.2122 13.13081,-3.08563 14.76023,-1.45624 0.51254,0.51258 -1.79265,3.84483 -5.12274,7.40497 -3.3301,3.56012 -6.03691,7.2303 -6.01515,8.1559 0.0261,1.12 0.44301,0.99316 1.24558,-0.37913 1.76808,-3.02323 11.37356,-9.37802 12.82203,-8.48282 1.39113,0.85977 0.14738,7.7536 -2.18528,12.11218 -2.12039,3.96182 -8.23679,8.0229 -16.17988,10.74283 -10.79342,3.69591 -13.96907,4.23313 -13.94595,2.35924 z m -138.79289,-6.46418 c 2.16294,-13.95662 12.9168,-27.10318 22.137,-27.06257 4.82914,0.0205 9.91242,1.26687 9.84377,2.41209 -0.0271,0.45347 -2.33218,2.40266 -5.12226,4.33158 -2.79009,1.92892 -5.78199,4.85782 -6.64867,6.50868 -1.50476,2.8662 -1.46453,2.90589 0.89163,0.88052 2.85429,-2.45366 10.22798,-6.34024 12.02865,-6.34024 1.43677,0 0.0397,7.15335 -2.22202,11.37998 -2.09187,3.9086 -11.19417,9.01322 -19.05488,10.68604 -3.57968,0.76179 -7.90653,1.70472 -9.61505,2.09538 -2.99664,0.68521 -3.07565,0.51254 -2.23817,-4.89146 z m -30.71459,-30.44609 c -3.36558,-1.03546 -6.44163,-2.40424 -6.83561,-3.04173 -1.02944,-1.66572 12.00855,-13.06963 18.16178,-15.88551 6.50797,-2.97819 13.84752,-3.0873 19.26396,-0.28636 l 4.16467,2.15364 -5.85646,2.54745 c -3.2211,1.40109 -7.32098,3.0176 -9.11082,3.59225 l -3.25437,1.04487 3.37284,0.11186 c 1.85512,0.0615 6.22113,-0.74531 9.70227,-1.79298 3.48125,-1.04768 6.63563,-1.59865 7.00988,-1.22437 1.57854,1.57851 -4.7922,10.45263 -9.02021,12.56481 -5.59951,2.79723 -18.87055,2.90113 -27.59793,0.21596 z m 98.54254,-9.29492 c -2.86386,-1.16194 -7.14515,-3.40585 -9.51409,-4.98646 l -4.30702,-2.87384 4.30702,-2.64087 c 11.00319,-6.74651 22.73389,-8.12004 29.41041,-3.44359 4.29338,3.00719 3.58907,3.9742 -3.95008,5.42356 l -6.83415,1.31379 8.1659,0.17107 8.16581,0.17108 -2.00086,3.05372 c -4.05056,6.18201 -13.72421,7.75487 -23.44294,3.81167 z m 127.77356,-27.86569 c -3.46895,-2.01646 -6.06128,-9.16237 -6.06128,-16.70823 0,-7.60033 1.25148,-8.13519 7.77444,-3.3227 5.24024,3.86611 9.14506,9.46729 9.09342,13.04391 -0.0474,3.30304 -3.73752,10.07134 -3.80434,6.97833 -0.0251,-1.17362 -1.22092,-3.51673 -2.65672,-5.20694 l -2.61059,-3.07313 1.30881,3.66452 c 2.25259,6.30662 1.58784,7.31649 -3.04374,4.62424 z M 289.1363,432.49729 c -5.87666,-2.57477 -12.08871,-9.62029 -16.35579,-18.55007 -4.69926,-9.83415 -4.90108,-12.46023 -0.89222,-11.60556 1.61095,0.34344 6.15074,1.24934 10.08844,2.01313 8.37208,1.62388 16.33858,5.83456 19.7322,10.42941 2.68631,3.63708 5.34594,11.71563 3.85704,11.71563 -0.52907,0 -4.27182,-1.99307 -8.31715,-4.42908 -6.70418,-4.037 -7.1763,-4.15598 -5.33395,-1.34411 1.11174,1.69671 4.58235,4.70512 7.71236,6.68531 5.55975,3.51738 5.62445,3.63735 2.807,5.20321 -3.7233,2.06922 -8.4008,2.02776 -13.29793,-0.11778 z m 149.06342,-27.56087 c 0.5812,-8.49861 -0.26256,-10.33761 -1.76867,-3.85474 l -1.50418,6.47441 -2.92701,-3.72103 c -1.65214,-2.10038 -2.92692,-5.53842 -2.92692,-7.89368 0,-4.36924 7.17872,-20.20927 9.15888,-20.20927 2.15269,0 7.7521,11.26637 8.4628,17.02797 0.79946,6.48092 -0.99956,10.8928 -5.70396,13.98836 -2.97488,1.95748 -3.04566,1.91151 -2.79094,-1.81202 z m -117.82178,-3.69357 c -5.04635,-2.2275 -7.74697,-5.34079 -10.98731,-12.66603 -2.92944,-6.62252 -5.04345,-23.75109 -3.08098,-24.96395 1.50175,-0.92811 15.22316,7.09801 20.36775,11.9138 5.34536,5.00371 7.37552,9.64638 7.31915,16.73792 l -0.0493,6.2479 -6.63707,-7.11847 c -4.96995,-5.33051 -6.38399,-6.31138 -5.62987,-3.90521 0.55403,1.7673 2.68429,5.66193 4.73408,8.65475 2.04979,2.99281 3.72687,5.77527 3.72687,6.18326 0,1.32364 -5.75655,0.68452 -9.763,-1.08397 z m 158.20277,-5.28352 c -2.22512,-2.68107 -2.00474,-9.96574 0.44475,-14.70255 1.98374,-3.83606 11.96193,-13.33509 14.00785,-13.33509 1.65456,0 2.81251,8.88964 1.96431,15.07859 -0.87897,6.41247 -3.80463,11.66406 -7.64234,13.71793 -3.59071,1.92169 -3.85376,1.06748 -1.78656,-5.8015 1.00518,-3.33986 1.565,-6.07245 1.24423,-6.07245 -0.32087,0 -1.94351,2.93571 -3.60589,6.5238 -2.54716,5.49763 -3.27478,6.21982 -4.62635,4.59127 z m -80.74061,-7.19749 c -6.57643,-9.23571 -3.9583,-21.68259 7.04797,-33.50721 l 6.79423,-7.29933 3.12419,9.65777 c 5.52446,17.07757 3.92271,27.53371 -5.13956,33.55085 l -3.04742,2.02336 0.52956,-9.37168 c 0.44611,-7.89419 0.28055,-8.91097 -1.04994,-6.44952 -0.86881,1.60714 -1.96788,5.70457 -2.44242,9.10536 -0.47454,3.40076 -1.35369,6.18323 -1.95376,6.18323 -0.59997,0 -2.33827,-1.75176 -3.86285,-3.89283 z m -59.04739,-39.60731 c -7.06818,-10.78752 -1.89226,-23.34646 14.05891,-34.1122 l 6.57846,-4.43993 0.8223,3.60123 c 1.40544,6.15509 1.20197,20.57276 -0.35578,25.21105 -0.81737,2.43369 -2.42685,5.50998 -3.57669,6.83618 -2.26526,2.61269 -9.1762,6.56406 -10.01446,5.72582 -0.50141,-0.50144 2.02378,-10.69494 3.95057,-15.94754 0.76842,-2.0946 0.42522,-1.96738 -1.7559,0.65087 -1.49102,1.78989 -3.7878,6.08792 -5.10398,9.55118 l -2.393,6.29681 z m -38.24165,-6.88742 c -5.04024,-3.38506 -18.53642,-19.14851 -18.56262,-21.68101 -0.009,-0.61817 5.99696,-0.90151 13.34076,-0.62967 15.09212,0.55866 20.31234,2.64771 25.36981,10.15235 2.47521,3.67304 4.0639,10.47645 2.44638,10.47645 -0.26778,0 -3.05022,-1.40323 -6.18322,-3.11825 -9.88496,-5.41114 -12.78306,-5.38353 -5.13406,0.049 3.88896,2.76208 7.11084,5.60773 7.15948,6.32367 0.0484,0.71597 -2.85951,1.4744 -6.4629,1.68541 -5.39661,0.31603 -7.50733,-0.25827 -11.97363,-3.25787 z M 476.7839,331.14763 c 2.6486,-4.20521 2.88882,-5.06396 1.0011,-3.57978 -1.36587,1.07394 -3.6411,3.38023 -5.05601,5.1251 l -2.57268,3.17248 -0.79039,-3.17248 c -1.72021,-6.90447 4.07174,-14.67434 14.04518,-18.8415 7.27824,-3.04105 9.6518,-2.5828 8.6772,1.67535 -1.89227,8.26785 -6.86288,17.08919 -10.76683,19.10803 -7.15764,3.70134 -8.44306,2.71344 -4.53757,-3.4872 z m -54.21961,-10.51871 c 0,-0.95257 1.38474,-4.46727 3.07721,-7.8104 1.69256,-3.34314 2.59937,-6.07843 2.01517,-6.07843 -1.32266,0 -8.99758,11.0263 -8.99758,12.92646 0,2.68477 -2.68052,1.35971 -3.9375,-1.94645 -3.01097,-7.91956 0.2699,-17.84364 7.8427,-23.72281 3.83732,-2.97911 16.24816,-9.38672 18.18103,-9.38672 3.42313,0 0.0812,23.0965 -4.2842,29.60855 -3.98547,5.94519 -13.89683,10.51677 -13.89683,6.4098 z m -42.30651,-21.70863 c -5.87318,-2.27316 -11.06468,-10.79499 -11.06468,-18.16255 0,-5.29086 4.80487,-20.09519 7.67066,-23.63436 l 2.43876,-3.01168 5.37669,8.3189 c 6.55641,10.14401 9.40094,18.97958 8.04531,24.99027 -1.0339,4.5841 -4.04496,10.20707 -5.46576,10.20707 -0.99579,0 -3.70977,-10.31197 -3.83471,-14.57011 l -0.088,-3.00334 -1.45244,3.01821 c -1.05391,2.19011 -1.06861,4.86877 -0.0532,9.76302 0.7694,3.70965 1.31627,6.82297 1.21512,6.91852 -0.10113,0.0955 -1.35544,-0.27975 -2.78737,-0.83395 z m -56.4689,-8.72591 c -4.78563,-2.3576 -10.31124,-9.21025 -15.28322,-18.95376 -3.83548,-7.51652 -3.06056,-8.12476 9.10705,-7.14807 16.00765,1.28495 25.52986,8.56731 25.54079,19.53313 v 4.8729 l -5.95751,-4.54748 c -8.35806,-6.37978 -11.43207,-5.78176 -3.98335,0.77492 3.32564,2.92732 5.71662,5.85622 5.31345,6.50867 -1.18843,1.92294 -9.98737,1.30202 -14.74205,-1.04031 z m 136.52638,-20.14062 c 3.8e-4,-0.22712 1.17188,-3.4948 2.60353,-7.26125 4.12647,-10.8571 3.16588,-13.48465 -1.57168,-4.29874 -3.7496,7.27033 -4.3457,7.85975 -5.85781,5.79187 -2.32772,-3.1834 -2.10868,-12.80144 0.40579,-17.81549 2.07725,-4.1422 17.17393,-20.4377 18.93417,-20.4377 1.77912,0 4.01033,14.99076 3.33677,22.41891 -0.75064,8.27845 -3.76362,14.49 -8.73927,18.01698 -3.01087,2.13424 -9.11296,4.53546 -9.1115,3.58542 z m 49.7327,-2.97242 c -5.23076,-6.64978 -2.40364,-17.96837 6.63514,-26.56469 l 4.61706,-4.39098 2.05057,6.90527 c 2.9156,9.81776 2.67162,18.30965 -0.64727,22.52892 -3.86506,4.91357 -5.11248,4.26822 -5.11248,-2.6449 0,-7.25908 -0.95478,-6.7566 -3.09374,1.62825 l -1.57854,6.18775 z m -98.77126,-8.42879 c -2.27038,-1.38437 -5.63818,-5.09415 -7.48412,-8.24397 -3.57128,-6.09397 -8.22808,-22.54324 -6.78938,-23.982 1.56143,-1.5614 14.99987,3.5531 20.64085,7.8556 7.41498,5.65562 11.43353,11.87312 11.40896,17.65204 -0.0338,8.02406 -1.57641,8.4887 -6.92747,2.08708 -2.67529,-3.20048 -6.14038,-6.50212 -7.70026,-7.33693 -2.48894,-1.33204 -2.39765,-0.99667 0.74609,2.73939 1.9702,2.34148 4.45469,5.94436 5.52098,8.00639 1.91149,3.6965 1.888,3.7491 -1.67447,3.7443 -1.98723,-0.002 -5.47079,-1.13752 -7.74118,-2.5219 z m -60.32217,-16.02297 c -5.47756,-8.98379 -2.02436,-19.90372 9.67549,-30.59671 4.10906,-3.75551 7.94957,-6.8282 8.53436,-6.8282 1.3211,0 3.93392,14.58023 3.93392,21.95252 0,3.00714 -0.80769,7.40061 -1.79487,9.76325 -1.70097,4.071 -7.66216,9.93977 -10.09636,9.93977 -1.50834,0 -1.42758,-6.12553 0.15337,-11.63799 0.70364,-2.4537 1.00701,-4.73374 0.67395,-5.06675 -0.94878,-0.9488 -5.79823,10.5098 -5.83005,13.77584 -0.0406,4.16975 -2.24736,3.62258 -5.24981,-1.30173 z m 158.01786,-19.76891 c -7.16112,-3.11672 -13.72227,-14.64794 -16.52696,-29.0462 -0.99452,-5.10586 -0.35694,-5.199 10.49663,-1.53368 14.70791,4.96694 23.85065,16.16414 21.86052,26.77277 l -0.85682,4.56709 -5.26296,-5.97902 c -2.89462,-3.28843 -6.52102,-6.63287 -8.05885,-7.43205 l -2.79598,-1.45304 2.71832,3.10558 c 1.49508,1.70804 4.03247,5.30225 5.63857,7.98708 l 2.92025,4.88151 -3.03513,-0.0511 c -1.66925,-0.0281 -4.86319,-0.84661 -7.09759,-1.81909 z m -83.73097,-14.1442 c -4.2488,-1.35487 -22.20324,-16.91323 -22.20324,-19.24015 0,-1.86401 10.64884,-4.12754 19.54594,-4.1547 9.65924,-0.0294 14.8579,2.10712 20.00202,8.22054 4.01322,4.76952 4.70158,9.87454 1.13136,8.39097 -4.08798,-1.69869 -13.72276,-4.54038 -15.17693,-4.47628 -0.7811,0.0344 1.94796,1.80118 6.06475,3.92609 4.11671,2.1249 7.485,4.38256 7.485,5.01699 0,1.34375 -7.23559,4.07311 -10.28271,3.8788 -1.14608,-0.0731 -4.10095,-0.77611 -6.56619,-1.56226 z m 41.62861,-28.15751 c -2.94665,-5.50581 -3.77726,-10.37374 -2.53671,-14.86653 1.68443,-6.10075 10.04056,-15.19875 17.87639,-19.46353 l 6.54868,-3.56424 0.91089,7.29072 c 1.86508,14.92766 -1.97688,26.79906 -10.07673,31.13605 -2.64231,1.41477 -5.1329,2.24359 -5.53471,1.84179 -0.63933,-0.6394 0.84685,-6.46969 3.77997,-14.82804 l 0.91368,-2.60346 -2.20558,2.60346 c -1.21309,1.43192 -3.51877,5.50685 -5.12361,9.05545 -2.85584,6.31437 -2.95284,6.38684 -4.55227,3.39833 z m 83.26435,-19.7675 c -6.10034,-2.41975 -12.05235,-9.5936 -17.69275,-21.32447 -3.0982,-6.44361 -5.04867,-11.91833 -4.33448,-12.16606 2.84491,-0.98681 18.85526,2.7307 24.85571,5.77136 9.89076,5.01203 11.49067,7.18637 11.49067,15.61623 v 7.26894 l -4.88165,-3.84079 c -2.68467,-2.11245 -6.30178,-4.28385 -8.03776,-4.82536 -2.65092,-0.82692 -2.38731,-0.30938 1.64691,3.23267 2.64173,2.31949 6.00567,5.90613 7.4757,7.97033 l 2.6724,3.75307 -4.97024,-0.0825 c -2.73361,-0.0453 -6.43457,-0.6634 -8.22451,-1.37339 z"
       id="path1" /></g></svg>
